<svg width="2676" height="745" xmlns="http://www.w3.org/2000/svg" xmlns:xlink="http://www.w3.org/1999/xlink" xml:space="preserve" overflow="hidden"><defs><linearGradient x1="67.3117" y1="0" x2="67.3117" y2="136.458" gradientUnits="userSpaceOnUse" spreadMethod="reflect" id="fill0"><stop offset="0" stop-color="#F6F8FC"/><stop offset="0.74" stop-color="#ABC0E4"/><stop offset="0.83" stop-color="#ABC0E4"/><stop offset="1" stop-color="#C7D5ED"/></linearGradient><linearGradient x1="2211" y1="1134.5" x2="2211" y2="1267.5" gradientUnits="userSpaceOnUse" spreadMethod="reflect" id="fill1"><stop offset="0" stop-color="#ED8B8C"/><stop offset="0.5" stop-color="#F2BABA"/><stop offset="1" stop-color="#F8DEDE"/></linearGradient><linearGradient x1="1871.5" y1="914.5" x2="2003.5" y2="914.5" gradientUnits="userSpaceOnUse" spreadMethod="reflect" id="fill2"><stop offset="0" stop-color="#ED8B8C"/><stop offset="0.5" stop-color="#F2BABA"/><stop offset="1" stop-color="#F8DEDE"/></linearGradient></defs><g transform="translate(-1260 -672)"><path d="M1520.5 1189.06 1739.83 1189.06 1739.83 1195.94 1520.5 1195.94ZM1735.25 1178.75 1762.75 1192.5 1735.25 1206.25Z" fill="#C5050C"/><rect x="0" y="0" width="134.623" height="136.458" stroke="#2F528F" stroke-width="4.58333" stroke-miterlimit="8" fill="url(#fill0)" transform="matrix(-0.999974 -0.00724305 -0.00724305 0.999974 2001.85 1128.73)"/><path d="M2001.72 1127.91 1870.84 1264.49" stroke="#63747A" stroke-width="4.58333" stroke-miterlimit="8" fill="none" fill-rule="evenodd"/><text fill="#202020" font-family="Calibri,Calibri_MSFontService,sans-serif" font-weight="400" font-size="83" transform="matrix(1 0 0 1 2164.51 1345)">SPCM 1</text><text fill="#202020" font-family="Calibri,Calibri_MSFontService,sans-serif" font-weight="400" font-size="83" transform="matrix(1 0 0 1 1574.46 952)">SPCM 0</text><text fill="#202020" font-family="Calibri,Calibri_MSFontService,sans-serif" font-weight="400" font-size="83" transform="matrix(1 0 0 1 1807.32 1215)">a</text><text fill="#202020" font-family="Calibri,Calibri_MSFontService,sans-serif" font-weight="400" font-size="83" transform="matrix(1 0 0 1 1914.99 1339)">b</text><text fill="#202020" font-family="Calibri,Calibri_MSFontService,sans-serif" font-weight="400" font-size="83" transform="matrix(1 0 0 1 2014.25 1226)">c</text><text fill="#202020" font-family="Calibri,Calibri_MSFontService,sans-serif" font-weight="400" font-size="83" transform="matrix(1 0 0 1 1913.25 1104)">d</text><path d="M2165.5 1134.5 2211 1134.5C2236.13 1134.5 2256.5 1164.27 2256.5 1201 2256.5 1237.73 2236.13 1267.5 2211 1267.5L2165.5 1267.5Z" stroke="#520102" stroke-width="4.58333" stroke-miterlimit="8" fill="url(#fill1)" fill-rule="evenodd"/><path d="M0 104.359C118.506 49.2668 237.013-5.82542 308.102 0.496719 379.191 6.81885 391.212 124.078 426.534 142.291 461.856 160.505 520.033 109.778 520.033 109.778L520.033 109.778 520.033 109.778" stroke="#520102" stroke-width="4.58333" stroke-miterlimit="8" fill="none" fill-rule="evenodd" transform="matrix(-0.970599 0.240702 0.240702 0.970599 2740.07 966.818)"/><path d="M1871.5 965.5 1871.5 914.5C1871.5 886.334 1901.05 863.5 1937.5 863.5 1973.95 863.5 2003.5 886.334 2003.5 914.5L2003.5 965.5Z" stroke="#520102" stroke-width="4.58333" stroke-miterlimit="8" fill="url(#fill2)" fill-rule="evenodd"/><path d="M1945.5 859.5C1980.44 769.369 2015.38 679.238 2087.52 677.515 2159.66 675.791 2265.33 827.446 2378.32 849.16 2491.32 870.874 2765.5 807.8 2765.5 807.8L2765.5 807.8" stroke="#520102" stroke-width="4.58333" stroke-miterlimit="8" fill="none" fill-rule="evenodd"/><path d="M2816.5 806.5 2895.18 806.5" stroke="#FA4B51" stroke-width="6.875" stroke-miterlimit="8" fill="none" fill-rule="evenodd"/><path d="M0 0 0.000360892 131.154" stroke="#FA4B51" stroke-width="6.875" stroke-miterlimit="8" fill="none" fill-rule="evenodd" transform="matrix(1 0 0 -1 2894.5 806.654)"/><path d="M0 0 51.6921 0.000360892" stroke="#FA4B51" stroke-width="6.875" stroke-miterlimit="8" fill="none" fill-rule="evenodd" transform="matrix(-1 0 0 1 2946.19 675.5)"/><path d="M0 0 0.000360892 131.154" stroke="#FA4B51" stroke-width="6.875" stroke-miterlimit="8" fill="none" fill-rule="evenodd" transform="matrix(1 0 0 -1 2946.5 809.654)"/><path d="M2947.5 809.5 3026.18 809.5" stroke="#FA4B51" stroke-width="6.875" stroke-miterlimit="8" fill="none" fill-rule="evenodd"/><path d="M2816.5 1070.5 2969.17 1070.5" stroke="#FA4B51" stroke-width="6.875" stroke-miterlimit="8" fill="none" fill-rule="evenodd"/><path d="M0 0 0.000360892 131.154" stroke="#FA4B51" stroke-width="6.875" stroke-miterlimit="8" fill="none" fill-rule="evenodd" transform="matrix(1 0 0 -1 2968.5 1069.65)"/><path d="M0 0 48.5509 0.000360892" stroke="#FA4B51" stroke-width="6.875" stroke-miterlimit="8" fill="none" fill-rule="evenodd" transform="matrix(-1 0 0 1 3017.05 938.5)"/><path d="M0 0 0.000360892 131.154" stroke="#FA4B51" stroke-width="6.875" stroke-miterlimit="8" fill="none" fill-rule="evenodd" transform="matrix(1 0 0 -1 3017.5 1072.65)"/><path d="M3018.5 1072.5 3092.4 1072.5" stroke="#FA4B51" stroke-width="6.875" stroke-miterlimit="8" fill="none" fill-rule="evenodd"/><path d="M3092.5 1072.5 3171.18 1072.5" stroke="#FA4B51" stroke-width="6.875" stroke-miterlimit="8" fill="none" fill-rule="evenodd"/><path d="M0 0 0.000360892 131.154" stroke="#FA4B51" stroke-width="6.875" stroke-miterlimit="8" fill="none" fill-rule="evenodd" transform="matrix(1 0 0 -1 3171.5 1072.65)"/><path d="M0 0 51.6921 0.000360892" stroke="#FA4B51" stroke-width="6.875" stroke-miterlimit="8" fill="none" fill-rule="evenodd" transform="matrix(-1 0 0 1 3223.19 941.5)"/><path d="M0 0 0.000360892 131.154" stroke="#FA4B51" stroke-width="6.875" stroke-miterlimit="8" fill="none" fill-rule="evenodd" transform="matrix(1 0 0 -1 3222.5 1074.65)"/><path d="M3223.5 1075.5 3302.18 1075.5" stroke="#FA4B51" stroke-width="6.875" stroke-miterlimit="8" fill="none" fill-rule="evenodd"/><path d="M0 0 0.000360892 131.154" stroke="#FA4B51" stroke-width="6.875" stroke-miterlimit="8" fill="none" fill-rule="evenodd" transform="matrix(1 0 0 -1 3305.5 1076.65)"/><path d="M0 0 51.6921 0.000360892" stroke="#FA4B51" stroke-width="6.875" stroke-miterlimit="8" fill="none" fill-rule="evenodd" transform="matrix(-1 0 0 1 3357.19 945.5)"/><path d="M0 0 0.000360892 131.154" stroke="#FA4B51" stroke-width="6.875" stroke-miterlimit="8" fill="none" fill-rule="evenodd" transform="matrix(1 0 0 -1 3357.5 1077.65)"/><path d="M3357.5 1074.06 3487.26 1074.06 3487.26 1080.94 3357.5 1080.94ZM3482.67 1063.75 3510.17 1077.5 3482.67 1091.25Z" fill="#FA4B51"/><path d="M3026.5 810.5 3228.43 810.5" stroke="#FA4B51" stroke-width="6.875" stroke-miterlimit="8" fill="none" fill-rule="evenodd"/><path d="M0 0 0.000360892 131.154" stroke="#FA4B51" stroke-width="6.875" stroke-miterlimit="8" fill="none" fill-rule="evenodd" transform="matrix(1 0 0 -1 3228.5 810.654)"/><path d="M0 0 48.5509 0.000360892" stroke="#FA4B51" stroke-width="6.875" stroke-miterlimit="8" fill="none" fill-rule="evenodd" transform="matrix(-1 0 0 1 3277.05 679.5)"/><path d="M0 0 0.000360892 131.154" stroke="#FA4B51" stroke-width="6.875" stroke-miterlimit="8" fill="none" fill-rule="evenodd" transform="matrix(1 0 0 -1 3276.5 812.654)"/><path d="M3277.5 810.063 3486.83 810.063 3486.83 816.938 3277.5 816.938ZM3482.24 799.75 3509.74 813.501 3482.24 827.25Z" fill="#FA4B51"/><path d="M1308.65 1158.85 1346.55 1158.85 1346.55 1171.09 1342.58 1171.09C1342.17 1169.76 1341.75 1168.6 1341.32 1167.6 1340.89 1166.6 1340.44 1165.76 1339.98 1165.09 1339.52 1164.41 1339.02 1163.87 1338.46 1163.47 1337.91 1163.06 1337.25 1162.78 1336.5 1162.64 1335.74 1162.49 1334.84 1162.41 1333.78 1162.41L1320.98 1162.41 1320.98 1183.65 1329.65 1183.65C1330.84 1183.65 1331.77 1183.48 1332.44 1183.14 1333.12 1182.8 1333.68 1182.23 1334.13 1181.42 1334.57 1180.61 1335 1179.34 1335.4 1177.61L1339.21 1177.61 1339.21 1193.17 1335.4 1193.17C1335.02 1191.55 1334.61 1190.33 1334.15 1189.51 1333.69 1188.68 1333.14 1188.09 1332.51 1187.74 1331.87 1187.39 1330.92 1187.22 1329.65 1187.22L1320.98 1187.22 1320.98 1210.6 1333.58 1210.6C1334.9 1210.6 1335.98 1210.49 1336.8 1210.26 1337.63 1210.03 1338.33 1209.63 1338.93 1209.08 1339.52 1208.53 1340.05 1207.8 1340.51 1206.91 1340.97 1206.02 1341.35 1205.09 1341.66 1204.14 1341.98 1203.18 1342.4 1201.78 1342.94 1199.94L1346.95 1199.94 1346.18 1214.17 1308.65 1214.17 1308.65 1212.18C1310.33 1211.75 1311.45 1211.27 1312.02 1210.74 1312.59 1210.21 1312.96 1209.47 1313.13 1208.49 1313.31 1207.52 1313.4 1206.03 1313.4 1204.03L1313.4 1168.98C1313.4 1167.11 1313.33 1165.76 1313.19 1164.91 1313.06 1164.05 1312.84 1163.39 1312.53 1162.92 1312.21 1162.45 1311.8 1162.07 1311.29 1161.78 1310.78 1161.5 1309.9 1161.18 1308.65 1160.83Z" fill="#202020" fill-rule="evenodd"/><text fill="#000000" fill-opacity="0" font-family="Arial,Arial_MSFontService,sans-serif" font-size="55.3198" x="1308.65" y="1207.25">Î•</text><path d="M1372.3 1203.55C1371.13 1203.55 1370.04 1203.81 1369.03 1204.32 1368.01 1204.84 1367.09 1205.54 1366.26 1206.44 1365.42 1207.33 1364.68 1208.36 1364.04 1209.54 1363.39 1210.71 1362.84 1211.95 1362.4 1213.26 1361.95 1214.57 1361.61 1215.91 1361.39 1217.29 1361.16 1218.67 1361.04 1220 1361.04 1221.27 1361.04 1223.41 1361.35 1225.01 1361.95 1226.05 1362.56 1227.09 1363.54 1227.61 1364.89 1227.61 1365.56 1227.61 1366.21 1227.5 1366.84 1227.26 1367.46 1227.02 1368.12 1226.64 1368.82 1226.13 1370.56 1224.76 1372.05 1223.09 1373.28 1221.12 1374.52 1219.16 1375.44 1216.83 1376.05 1214.15 1376.33 1212.92 1376.55 1211.81 1376.71 1210.82 1376.87 1209.82 1376.95 1208.88 1376.95 1207.99 1376.95 1206.4 1376.58 1205.26 1375.83 1204.58 1375.09 1203.89 1373.91 1203.55 1372.3 1203.55ZM1371.77 1200.6C1373.33 1200.6 1374.72 1200.78 1375.92 1201.15 1377.12 1201.52 1378.22 1202.02 1379.21 1202.65L1382.1 1200.6 1384.51 1201.22 1380.02 1220.73C1379.76 1221.85 1379.58 1222.76 1379.48 1223.49 1379.38 1224.21 1379.33 1224.85 1379.33 1225.41 1379.33 1226.17 1379.48 1226.71 1379.79 1227.05 1380.1 1227.39 1380.54 1227.56 1381.12 1227.56 1381.48 1227.56 1381.83 1227.49 1382.18 1227.35 1382.52 1227.21 1382.9 1226.99 1383.31 1226.69 1383.71 1226.39 1384.16 1226.01 1384.65 1225.54 1385.13 1225.08 1385.69 1224.52 1386.3 1223.86 1386.62 1224.2 1386.95 1224.53 1387.28 1224.86 1387.62 1225.19 1387.95 1225.51 1388.27 1225.83 1387.27 1226.84 1386.37 1227.71 1385.56 1228.43 1384.74 1229.16 1383.95 1229.75 1383.19 1230.22 1382.42 1230.69 1381.67 1231.03 1380.94 1231.23 1380.2 1231.44 1379.44 1231.55 1378.65 1231.55 1377.22 1231.55 1376.1 1231.08 1375.31 1230.16 1374.52 1229.24 1374.12 1227.97 1374.12 1226.36 1374.12 1225.47 1374.26 1224.62 1374.54 1223.8L1374.12 1223.62C1373.11 1225.03 1372.12 1226.23 1371.17 1227.23 1370.22 1228.22 1369.27 1229.04 1368.34 1229.68 1367.41 1230.33 1366.46 1230.8 1365.51 1231.1 1364.56 1231.4 1363.56 1231.55 1362.53 1231.55 1360.17 1231.55 1358.34 1230.7 1357.05 1229 1355.76 1227.3 1355.12 1224.83 1355.12 1221.6 1355.12 1219.67 1355.32 1217.82 1355.73 1216.04 1356.13 1214.27 1356.71 1212.6 1357.45 1211.04 1358.2 1209.48 1359.09 1208.06 1360.12 1206.78 1361.15 1205.5 1362.28 1204.4 1363.52 1203.49 1364.75 1202.58 1366.06 1201.87 1367.45 1201.36 1368.84 1200.85 1370.28 1200.6 1371.77 1200.6Z" fill="#202020" fill-rule="evenodd"/><text fill="#000000" fill-opacity="0" font-family="Arial,Arial_MSFontService,sans-serif" font-size="30.9468" x="1355.12" y="1227.68">ğ‘</text><path d="M1425.81 1155.6 1426.91 1158.72C1420.58 1160.81 1415.9 1164.86 1412.86 1170.9 1409.82 1176.94 1408.3 1184.53 1408.3 1193.66 1408.3 1203.12 1409.82 1210.91 1412.86 1217.04 1415.9 1223.18 1420.54 1227.28 1426.78 1229.36L1425.81 1232.48C1417.89 1230.4 1411.83 1225.93 1407.61 1219.05 1403.4 1212.17 1401.29 1203.85 1401.29 1194.06 1401.29 1184.31 1403.41 1175.98 1407.63 1169.08 1411.86 1162.18 1417.92 1157.68 1425.81 1155.6Z" fill="#202020" fill-rule="evenodd"/><text fill="#000000" fill-opacity="0" font-family="Arial,Arial_MSFontService,sans-serif" font-size="76.8804" x="1401.29" y="1222.87">(</text><path d="M1444.22 1165.41 1449.81 1165.41 1447.58 1175.42 1459.9 1175.42 1459.01 1179.52 1446.69 1179.52 1443.08 1195.24C1442.38 1198.29 1441.94 1200.49 1441.75 1201.83 1441.56 1203.16 1441.46 1204.24 1441.46 1205.05 1441.46 1208.4 1442.85 1210.07 1445.64 1210.07 1446.83 1210.07 1448.09 1209.62 1449.43 1208.72 1450.76 1207.81 1452.35 1206.26 1454.19 1204.08L1456.54 1206.51C1454.19 1209.34 1451.93 1211.44 1449.75 1212.79 1447.58 1214.14 1445.3 1214.81 1442.92 1214.81 1437.27 1214.81 1434.45 1211.96 1434.45 1206.26 1434.45 1204.45 1434.68 1202.55 1435.14 1200.55L1439.92 1179.52 1433.11 1179.52 1433.72 1176.72C1435.32 1176.69 1436.52 1176.57 1437.35 1176.35 1438.17 1176.14 1438.86 1175.84 1439.42 1175.46 1439.97 1175.08 1440.48 1174.54 1440.94 1173.84 1441.39 1173.14 1441.84 1172.24 1442.27 1171.15 1442.71 1170.05 1443.35 1168.14 1444.22 1165.41Z" fill="#202020" fill-rule="evenodd"/><text fill="#000000" fill-opacity="0" font-family="Arial,Arial_MSFontService,sans-serif" font-size="49.4028" x="1433.11" y="1208.64">ğ‘¡</text><path d="M1465.68 1155.6C1473.57 1157.68 1479.63 1162.18 1483.86 1169.08 1488.08 1175.98 1490.2 1184.31 1490.2 1194.06 1490.2 1203.85 1488.09 1212.17 1483.88 1219.05 1479.66 1225.93 1473.6 1230.4 1465.68 1232.48L1464.71 1229.36C1470.95 1227.28 1475.59 1223.18 1478.63 1217.04 1481.67 1210.91 1483.19 1203.12 1483.19 1193.66 1483.19 1184.53 1481.67 1176.94 1478.65 1170.9 1475.62 1164.86 1470.93 1160.81 1464.58 1158.72Z" fill="#202020" fill-rule="evenodd"/><text fill="#000000" fill-opacity="0" font-family="Arial,Arial_MSFontService,sans-serif" font-size="76.8804" x="1464.58" y="1222.87">)</text><rect x="3519.5" y="693.5" width="414" height="505" stroke="#520102" stroke-width="4.58333" stroke-miterlimit="8" fill="#63747A"/><text fill="#FFFFFF" font-family="Calibri,Calibri_MSFontService,sans-serif" font-weight="400" font-size="83" transform="matrix(1 0 0 1 3642.76 874)">Time </text><text fill="#FFFFFF" font-family="Calibri,Calibri_MSFontService,sans-serif" font-weight="400" font-size="83" transform="matrix(1 0 0 1 3602.77 973)">tagging </text><text fill="#FFFFFF" font-family="Calibri,Calibri_MSFontService,sans-serif" font-weight="400" font-size="83" transform="matrix(1 0 0 1 3565.53 1072)">hardware</text></g></svg>