<?xml version="1.0" encoding="UTF-8" standalone="no"?>
<svg
   width="2981"
   height="1123"
   xml:space="preserve"
   overflow="hidden"
   version="1.1"
   id="svg218"
   sodipodi:docname="OP_setup.svg"
   inkscape:version="1.1.2 (b8e25be833, 2022-02-05)"
   xmlns:inkscape="http://www.inkscape.org/namespaces/inkscape"
   xmlns:sodipodi="http://sodipodi.sourceforge.net/DTD/sodipodi-0.dtd"
   xmlns="http://www.w3.org/2000/svg"
   xmlns:svg="http://www.w3.org/2000/svg"><sodipodi:namedview
     id="namedview220"
     pagecolor="#ffffff"
     bordercolor="#999999"
     borderopacity="1"
     inkscape:pageshadow="0"
     inkscape:pageopacity="0"
     inkscape:pagecheckerboard="0"
     showgrid="false"
     inkscape:zoom="0.1848373"
     inkscape:cx="2091.0282"
     inkscape:cy="413.8775"
     inkscape:window-width="1280"
     inkscape:window-height="698"
     inkscape:window-x="-6"
     inkscape:window-y="-6"
     inkscape:window-maximized="1"
     inkscape:current-layer="svg218" /><defs
     id="defs16"><linearGradient
       x1="2102.24"
       y1="990.191"
       x2="2092.7"
       y2="907.749"
       gradientUnits="userSpaceOnUse"
       spreadMethod="reflect"
       id="fill0"
       gradientTransform="translate(-823,-479)"><stop
         offset="0"
         stop-color="#2E65A4"
         stop-opacity="0.54902"
         id="stop2" /><stop
         offset="0.5"
         stop-color="#2C6295"
         stop-opacity="0.309804"
         id="stop4" /><stop
         offset="1"
         stop-color="#2A6087"
         stop-opacity="0.0666667"
         id="stop6" /></linearGradient><linearGradient
       x1="2097.09"
       y1="1322.83"
       x2="2094.85"
       y2="1238.18"
       gradientUnits="userSpaceOnUse"
       spreadMethod="reflect"
       id="fill1"
       gradientTransform="translate(-823,-479)"><stop
         offset="0"
         stop-color="#2B4255"
         stop-opacity="0.721569"
         id="stop9" /><stop
         offset="0.5"
         stop-color="#2B4F89"
         stop-opacity="0.431373"
         id="stop11" /><stop
         offset="1"
         stop-color="#2B5DBD"
         stop-opacity="0.137255"
         id="stop13" /></linearGradient></defs><rect
     x="40.5"
     y="491.5"
     width="432"
     height="295"
     stroke="#042433"
     stroke-width="6.875"
     stroke-miterlimit="8"
     fill="#e8e8e8"
     id="rect18" /><rect
     x="403.5"
     y="585.5"
     width="62.999901"
     height="45"
     stroke="#042433"
     stroke-width="6.875"
     stroke-miterlimit="8"
     fill="#156082"
     id="rect20" /><path
     d="M 180.08,546.27 298.83,652.26 285,667.74 166.253,561.76 Z"
     stroke="#d1d1d1"
     stroke-width="6.875"
     stroke-miterlimit="8"
     fill="#caeefb"
     fill-rule="evenodd"
     id="path22" /><path
     d="m 114.5,604.06 h 190.89 v 6.88 H 114.5 Z m 186.31,-10.31 27.5,13.75 -27.5,13.75 z"
     fill="#c00000"
     id="path24" /><path
     d="m 227.94,610.5 v 76.03 h -6.88 V 610.5 Z m 10.31,71.45 -13.75,27.5 -13.75,-27.5 z"
     fill="#c00000"
     id="path26" /><path
     d="M 257.5,711.5 V 740 c 0,15.74 -15,28.5 -33.5,28.5 -18.5,0 -33.5,-12.76 -33.5,-28.5 v -28.5 z"
     stroke="#042433"
     stroke-width="6.875"
     stroke-miterlimit="8"
     fill-rule="evenodd"
     id="path28" /><path
     d="m 467.5,606.5 373.54,0.09"
     stroke="#0070c0"
     stroke-width="6.875"
     stroke-miterlimit="8"
     fill="none"
     fill-rule="evenodd"
     id="path30" /><path
     d="m -88.804355,611.24045 149.978769,0.21602"
     stroke="#0070c0"
     stroke-width="6.74898"
     stroke-miterlimit="8"
     fill="none"
     fill-rule="evenodd"
     id="path30-3" /><path
     d="m 541.5,673.5 c 0,-37 39.62,-67 88.5,-67 48.88,0 88.5,30 88.5,67 0,37 -39.62,67 -88.5,67 -48.88,0 -88.5,-30 -88.5,-67 z"
     stroke="#0070c0"
     stroke-width="6.875"
     stroke-miterlimit="8"
     fill="none"
     fill-rule="evenodd"
     id="path32" /><path
     d="m 563.5,673.5 c 0,-37 39.62,-67 88.5,-67 48.88,0 88.5,30 88.5,67 0,37 -39.62,67 -88.5,67 -48.88,0 -88.5,-30 -88.5,-67 z"
     stroke="#0070c0"
     stroke-width="6.875"
     stroke-miterlimit="8"
     fill="none"
     fill-rule="evenodd"
     id="path34" /><path
     d="m 583.5,673.5 c 0,-37 39.62,-67 88.5,-67 48.88,0 88.5,30 88.5,67 0,37 -39.62,67 -88.5,67 -48.88,0 -88.5,-30 -88.5,-67 z"
     stroke="#0070c0"
     stroke-width="6.875"
     stroke-miterlimit="8"
     fill="none"
     fill-rule="evenodd"
     id="path36" /><rect
     x="-1059.5"
     y="570.5"
     width="19.999901"
     height="81.000099"
     stroke="#042433"
     stroke-width="6.875"
     stroke-miterlimit="8"
     fill="#156082"
     transform="scale(-1,1)"
     id="rect38" /><rect
     x="846.5"
     y="586.5"
     width="161"
     height="45.999802"
     stroke="#042433"
     stroke-width="6.875"
     stroke-miterlimit="8"
     fill="#dceaf7"
     id="rect40" /><path
     d="m 1007.55,606.06 145.39,2.18 -0.1,6.88 -145.39,-2.18 z m 140.96,-8.2 27.29,14.16 -27.7,13.34 z"
     fill="#c00000"
     id="path42" /><path
     d="m 1109.56,507.16 h 25.66 l -0.91,4.125 h -7.44 l -3.53,15.655 c -0.46,2.04 -0.69,3.58 -0.69,4.63 0,0.83 0.14,1.43 0.41,1.81 0.27,0.37 0.7,0.56 1.28,0.56 1.25,0 2.72,-1 4.41,-3 l 1.81,1.69 c -1.58,1.73 -3.03,2.98 -4.33,3.75 -1.3,0.77 -2.69,1.16 -4.17,1.16 -1.42,0 -2.53,-0.49 -3.34,-1.46 -0.82,-0.97 -1.22,-2.24 -1.22,-3.83 0,-1.39 0.29,-3.41 0.87,-6.06 l 0.69,-3.15 c 0.36,-1.67 0.86,-3.682 1.52,-6.036 0.65,-2.354 1.22,-4.167 1.7,-5.438 l -0.16,-0.281 h -9.18 l -3.85,17.785 c -0.31,1.39 -0.67,2.9 -1.09,4.51 -0.42,1.62 -0.74,2.77 -0.97,3.46 h -6.63 l 0.32,-1.54 c 2.21,-2.18 4.25,-7.31 6.12,-15.371 l 2.06,-8.844 h -1 c -1.47,0 -2.72,0.25 -3.75,0.75 -1.02,0.5 -2.13,1.5 -3.34,3 l -1.97,-1.656 c 1.09,-1.313 1.97,-2.313 2.66,-3 0.69,-0.688 1.41,-1.271 2.17,-1.75 0.76,-0.479 1.61,-0.844 2.56,-1.094 0.95,-0.25 2.06,-0.375 3.33,-0.375 z"
     fill-rule="evenodd"
     id="path44" /><text
     fill="#000000"
     fill-opacity="0"
     font-family="Arial, Arial_MSFontService, sans-serif"
     font-size="30.375px"
     x="1098.84"
     y="533.73999"
     id="text46">ğœ‹</text><path
     d="m 1111.9375,668.94376 3e-4,-121.64176 h -6.875 l -3e-4,121.64174 z m -22.4483,-25.76796 19.0108,32.59013 19.011,-32.59003 c 0.9566,-1.6399 0.4027,-3.7447 -1.2372,-4.7013 -1.6398,-0.9566 -3.7447,-0.4027 -4.7013,1.2371 l -16.0417,27.49999 5.9385,10e-6 -16.0416,-27.5 c -0.9566,-1.6399 -3.0615,-2.1938 -4.7013,-1.2372 -1.6399,0.9565 -2.1938,3.0614 -1.2372,4.7013 z m 38.022,-70.1058 -19.0108,-32.59 -19.011,32.59 c -0.9566,1.64 -0.4027,3.745 1.2371,4.7016 1.6399,0.9566 3.7447,0.4027 4.7013,-1.2371 l 16.0418,-27.4995 -5.9385,-10e-4 16.0416,27.5005 c 0.9566,1.6399 3.0614,2.1938 4.7013,1.2372 1.6399,-0.9565 2.1938,-3.0617 1.2372,-4.7017 z"
     fill="#c00000"
     id="path48" /><path
     d="m 1200.27,769.68 c -0.37,-14.4 -0.25,-288.493 -0.25,-288.493 l 5.39,-42.8 71.15,-194.32 c 3.19,-0.023 -1.46,-0.045 1.73,-0.067 l 66.94,193.869 5.77,45.535 -0.21,284.576 c -34.06,20.31 -63.15,18.45 -83.82,17.5 -20.65,-0.96 -50.96,-6.38 -66.7,-15.8 z"
     stroke="#000000"
     stroke-width="1.97083"
     stroke-miterlimit="8"
     fill="#f6b004"
     fill-rule="evenodd"
     fill-opacity="0.478431"
     id="path50" /><path
     d="m 1168.47,479.31 h 12.32 c 22.42,6.53 53.72,20.148 93.58,20.16 39.84,-0.018 70.82,-12.973 93.73,-20.16 h 12.37 v -38.84 h -212 z"
     stroke="#000000"
     stroke-width="3.10295"
     stroke-miterlimit="8"
     fill="url(#fill0)"
     fill-rule="evenodd"
     id="path52"
     style="fill:url(#fill0)" /><path
     d="m 1200.97,770.45 c 68.44,-92.59 72.55,-98.45 72.55,-98.45 0,0 3.06,4.45 76.45,97 -26.69,12.6 -55.28,17.71 -74.48,17.99 -19.2,0.27 -45.95,-4.38 -74.52,-16.54 z"
     stroke="#000000"
     stroke-width="1.97083"
     stroke-miterlimit="8"
     fill="#f6b004"
     fill-rule="evenodd"
     fill-opacity="0.478431"
     id="path54" /><path
     d="m 1164.97,841.01 h 216 v -79 h -16.08 c -27.67,16.16 -59,24.69 -90.9,24.74 -31.85,-0.08 -63.13,-8.61 -90.75,-24.74 h -18.27 z"
     stroke="#000000"
     stroke-width="3.82726"
     stroke-miterlimit="8"
     fill="url(#fill1)"
     fill-rule="evenodd"
     id="path56"
     style="fill:url(#fill1)" /><path
     d="m 1292.5,787.5 v 54.6"
     stroke="#202020"
     stroke-width="3.4375"
     stroke-miterlimit="8"
     fill="none"
     fill-rule="evenodd"
     id="path58" /><path
     d="m 1262.5,787.5 v 54.6"
     stroke="#202020"
     stroke-width="3.4375"
     stroke-miterlimit="8"
     fill="none"
     fill-rule="evenodd"
     id="path60" /><text
     fill="#202020"
     font-family="Calibri, Calibri_MSFontService, sans-serif"
     font-weight="400"
     font-size="46px"
     id="text62"
     x="909.25"
     y="706">Polarizer</text><text
     fill="#202020"
     font-family="Calibri, Calibri_MSFontService, sans-serif"
     font-weight="400"
     font-size="64px"
     id="text64"
     x="845.53998"
     y="567">GRIN2</text><text
     fill="#c00000"
     font-family="Calibri, Calibri_MSFontService, sans-serif"
     font-weight="400"
     font-size="55px"
     id="text66"
     x="959.85999"
     y="425">795 nm</text><text
     fill="#c00000"
     font-family="Calibri, Calibri_MSFontService, sans-serif"
     font-weight="400"
     font-size="55px"
     id="text68"
     x="1012"
     y="491">OP</text><path
     d="m 1267.56,662.06 -0.32,-99.66 13.75,-0.05 0.32,99.67 z M 1253.51,569.32 1274,528 l 20.76,41.18 z"
     fill="#156082"
     id="path70" /><text
     fill="#f6b004"
     font-family="Calibri, Calibri_MSFontService, sans-serif"
     font-weight="400"
     font-size="55px"
     id="text72"
     x="1415.9"
     y="334">852 nm</text><text
     fill="#f6b004"
     font-family="Calibri, Calibri_MSFontService, sans-serif"
     font-weight="400"
     font-size="55px"
     id="text74"
     x="1441.89"
     y="400">FORT</text><path
     d="m 1373.94,279.489 0.36,107.136 -6.88,0.023 -0.36,-107.136 z m 10.65,102.519 -13.66,27.546 -13.84,-27.454 z"
     fill="#ffc000"
     id="path76" /><path
     d="m 1361,350.5 c 0,-6.351 4.7,-11.5 10.5,-11.5 5.8,0 10.5,5.149 10.5,11.5 0,6.351 -4.7,11.5 -10.5,11.5 -5.8,0 -10.5,-5.149 -10.5,-11.5 z"
     fill="#ffc000"
     fill-rule="evenodd"
     id="path78" /><path
     d="m 1359,308.5 c 0,-6.351 4.7,-11.5 10.5,-11.5 5.8,0 10.5,5.149 10.5,11.5 0,6.351 -4.7,11.5 -10.5,11.5 -5.8,0 -10.5,-5.149 -10.5,-11.5 z"
     fill="#ffc000"
     fill-rule="evenodd"
     id="path80" /><text
     font-family="Aptos, Aptos_MSFontService, sans-serif"
     font-weight="400"
     font-size="64px"
     id="text82"
     x="1114.34"
     y="79">AY bias coils</text><path
     d="m 811.5,614 c 0,-256.536 213.78,-464.5 477.5,-464.5 263.72,0 477.5,207.964 477.5,464.5 0,256.54 -213.78,464.5 -477.5,464.5 -263.72,0 -477.5,-207.96 -477.5,-464.5 z"
     stroke="#042433"
     stroke-width="6.875"
     stroke-miterlimit="8"
     fill="none"
     fill-rule="evenodd"
     id="path84" /><rect
     x="1008.5"
     y="1054.5"
     width="549"
     height="17.0002"
     stroke="#f2aa84"
     stroke-width="6.875"
     stroke-miterlimit="8"
     fill="#ff0000"
     id="rect86" /><rect
     x="1008.5"
     y="1068.5"
     width="549"
     height="16.999901"
     stroke="#f2aa84"
     stroke-width="6.875"
     stroke-miterlimit="8"
     fill="#ff0000"
     id="rect88" /><rect
     x="1008.5"
     y="1088.5"
     width="549"
     height="16.999901"
     stroke="#f2aa84"
     stroke-width="6.875"
     stroke-miterlimit="8"
     fill="#ff0000"
     id="rect90" /><rect
     x="1008.5"
     y="1102.5"
     width="549"
     height="16.999901"
     stroke="#f2aa84"
     stroke-width="6.875"
     stroke-miterlimit="8"
     fill="#ff0000"
     id="rect92" /><rect
     x="1007.5"
     y="109.5"
     width="548"
     height="16.0002"
     stroke="#f2aa84"
     stroke-width="6.875"
     stroke-miterlimit="8"
     fill="#ff0000"
     id="rect94" /><rect
     x="1007.5"
     y="123.5"
     width="548"
     height="15.9998"
     stroke="#f2aa84"
     stroke-width="6.875"
     stroke-miterlimit="8"
     fill="#ff0000"
     id="rect96" /><rect
     x="1007.5"
     y="143.5"
     width="548"
     height="15.9998"
     stroke="#f2aa84"
     stroke-width="6.875"
     stroke-miterlimit="8"
     fill="#ff0000"
     id="rect98" /><rect
     x="1007.5"
     y="157.5"
     width="548"
     height="15.9998"
     stroke="#f2aa84"
     stroke-width="6.875"
     stroke-miterlimit="8"
     fill="#ff0000"
     id="rect100" /><path
     d="m 1306.61,615.23 -4.18,19.31 c 1.37,0.09 3.05,0.13 5.05,0.13 3.42,0 5.98,-0.39 7.7,-1.16 1.72,-0.77 3.19,-2.15 4.43,-4.13 1.24,-1.97 1.85,-4.41 1.85,-7.31 0,-2.27 -0.74,-3.97 -2.24,-5.12 -1.49,-1.14 -3.72,-1.72 -6.69,-1.72 z m 9.97,-20.62 c -1.96,0 -3.78,0.04 -5.46,0.1 l -3.81,17.56 h 4.75 c 2.65,0 4.76,-0.22 6.32,-0.64 1.56,-0.43 2.94,-1.19 4.13,-2.29 1.19,-1.1 2.05,-2.31 2.59,-3.63 0.54,-1.31 0.81,-2.83 0.81,-4.56 0,-0.97 -0.17,-1.87 -0.5,-2.71 -0.34,-0.85 -0.92,-1.56 -1.74,-2.16 -0.82,-0.59 -1.76,-1.02 -2.83,-1.28 -1.07,-0.26 -2.49,-0.39 -4.26,-0.39 z m -15.13,-2.96 h 16.68 c 3.37,0 6.07,0.35 8.1,1.06 2.03,0.71 3.53,1.75 4.48,3.12 0.96,1.37 1.43,3.08 1.43,5.15 0,2.94 -0.9,5.51 -2.69,7.7 -1.8,2.19 -4.47,3.87 -8.02,5.04 l -0.07,0.37 c 2.09,0.83 3.7,2.01 4.82,3.55 1.12,1.54 1.68,3.29 1.68,5.24 0,2.99 -0.68,5.54 -2.05,7.67 -1.37,2.12 -3.43,3.83 -6.17,5.13 -2.74,1.31 -6.75,1.96 -12.02,1.96 h -15 l 0.37,-1.65 c 0.86,-0.14 1.5,-0.36 1.92,-0.66 0.43,-0.3 0.79,-0.73 1.08,-1.26 0.29,-0.54 0.56,-1.2 0.81,-1.98 0.25,-0.77 0.62,-2.27 1.11,-4.49 l 5.73,-25.95 c 0.49,-2.24 0.74,-4.02 0.74,-5.32 0,-1.1 -0.26,-1.86 -0.77,-2.29 -0.52,-0.43 -1.36,-0.67 -2.53,-0.74 z"
     fill="#156082"
     fill-rule="evenodd"
     id="path102" /><text
     fill="#000000"
     fill-opacity="0"
     font-family="Arial, Arial_MSFontService, sans-serif"
     font-size="45.9888px"
     x="1292.6201"
     y="631.89001"
     id="text104">ğµ</text><path
     d="m 1327.59,570.26 8.45,7.32 v 1.95 l -8.45,7.31 -1.79,-2.02 5.39,-4.68 h -13.12 -7.43 -12.79 v -3.17 h 12.79 7.43 13.12 l -5.39,-4.68 z"
     fill="#156082"
     fill-rule="evenodd"
     id="path106" /><text
     font-family="Aptos, Aptos_MSFontService, sans-serif"
     font-weight="400"
     font-size="64px"
     id="text108"
     x="1701.62"
     y="302">Vacuum </text><text
     font-family="Aptos, Aptos_MSFontService, sans-serif"
     font-weight="400"
     font-size="64px"
     id="text110"
     x="1701.62"
     y="379">chamber</text><path
     d="m 225.5,864.59 3.6e-4,-94.0911"
     stroke="#000000"
     stroke-width="6.875"
     stroke-miterlimit="8"
     fill="none"
     fill-rule="evenodd"
     id="path112" /><rect
     x="328.5"
     y="529.5"
     width="19.999901"
     height="159"
     stroke="#d1d1d1"
     stroke-width="6.875"
     stroke-miterlimit="8"
     fill="#fbe3d6"
     id="rect114" /><rect
     x="370.5"
     y="529.5"
     width="21"
     height="159"
     stroke="#d1d1d1"
     stroke-width="6.875"
     stroke-miterlimit="8"
     fill="#c2f1c8"
     id="rect116" /><path
     d="m 332.95,324.691 c 1.73,0 3.06,0.404 3.98,1.213 0.92,0.809 1.57,2.083 1.95,3.824 0.38,1.741 0.58,4.284 0.58,7.631 0,1.101 -0.03,2.695 -0.07,4.784 l -0.14,5.324 c -0.18,5.053 -0.27,9.029 -0.27,11.926 0,2.336 0.05,4.161 0.16,5.475 0.1,1.314 0.26,2.308 0.48,2.982 0.23,0.674 0.51,1.129 0.85,1.364 0.33,0.236 0.75,0.354 1.24,0.354 0.59,0 1.21,-0.196 1.87,-0.589 0.67,-0.394 1.48,-1.107 2.45,-2.14 l 1.88,1.887 c -1.46,1.482 -2.9,2.639 -4.33,3.47 -1.42,0.831 -2.69,1.247 -3.79,1.247 -1.28,0 -2.25,-0.259 -2.93,-0.775 -0.67,-0.517 -1.16,-1.37 -1.46,-2.561 -0.31,-1.19 -0.46,-2.942 -0.46,-5.256 0,-3.189 0.24,-8.411 0.71,-15.666 h -0.34 c -6.74,9.883 -11.82,17.789 -15.26,23.719 h -6.84 l 0.34,-1.651 c 1.03,-1.258 2.06,-2.566 3.1,-3.925 1.03,-1.359 2.29,-3.083 3.77,-5.172 l 15.09,-21.428 c -0.02,-2.291 -0.12,-4.211 -0.3,-5.761 -0.18,-1.55 -0.43,-2.779 -0.74,-3.689 -0.32,-0.91 -0.73,-1.578 -1.25,-2.005 -0.51,-0.427 -1.22,-0.64 -2.12,-0.64 -0.74,0 -1.49,0.213 -2.26,0.64 -0.76,0.427 -1.87,1.303 -3.33,2.628 l -1.75,-1.954 c 2.06,-2.044 3.77,-3.431 5.13,-4.161 1.36,-0.73 2.72,-1.095 4.06,-1.095 z"
     fill-rule="evenodd"
     id="path118" /><text
     fill="#000000"
     fill-opacity="0"
     font-family="Arial, Arial_MSFontService, sans-serif"
     font-size="48.7515px"
     x="313.20996"
     y="367.349"
     id="text120">ğœ†</text><path
     d="m 333.48,432.331 -13.17,20.922 v 0.472 h 13.17 v -8.389 c 0,-2.112 0.04,-4.476 0.1,-7.092 0.07,-2.617 0.15,-4.588 0.24,-5.913 z m 0.98,-7.615 h 4.82 v 29.009 h 0.7 c 1.31,0 2.24,-0.096 2.8,-0.287 0.56,-0.191 1.03,-0.527 1.4,-1.01 0.37,-0.483 0.71,-1.275 1.03,-2.376 h 2.56 l -0.41,6.941 h -8.08 v 5.525 c 0,1.505 0.05,2.606 0.15,3.302 0.1,0.696 0.27,1.247 0.5,1.651 0.24,0.404 0.59,0.741 1.05,1.011 0.46,0.269 1.2,0.539 2.24,0.808 v 1.651 h -13.68 v -1.651 c 1.39,-0.359 2.32,-0.758 2.8,-1.196 0.47,-0.438 0.78,-1.061 0.92,-1.87 0.15,-0.808 0.22,-2.044 0.22,-3.706 v -5.525 h -18.73 v -2.527 z"
     fill-rule="evenodd"
     id="path122" /><text
     fill="#000000"
     fill-opacity="0"
     font-family="Arial, Arial_MSFontService, sans-serif"
     font-size="46.2246px"
     x="314.75"
     y="465.16302"
     id="text124">4</text><path
     d="m 311.71,402.947 h 12.66 12.67 12.67 v 4 h -12.67 -12.67 -12.66 z"
     fill-rule="evenodd"
     id="path126" /><path
     d="m 395.94,325.993 c 1.73,0 3.06,0.405 3.98,1.213 0.92,0.809 1.57,2.083 1.95,3.824 0.38,1.741 0.58,4.285 0.58,7.631 0,1.101 -0.03,2.696 -0.07,4.784 l -0.14,5.324 c -0.18,5.053 -0.27,9.029 -0.27,11.926 0,2.336 0.05,4.161 0.15,5.475 0.11,1.314 0.27,2.308 0.49,2.982 0.23,0.674 0.51,1.129 0.85,1.364 0.33,0.236 0.75,0.354 1.24,0.354 0.59,0 1.21,-0.196 1.87,-0.589 0.66,-0.393 1.48,-1.107 2.44,-2.14 l 1.89,1.887 c -1.46,1.482 -2.9,2.639 -4.33,3.47 -1.42,0.831 -2.69,1.247 -3.79,1.247 -1.28,0 -2.26,-0.259 -2.93,-0.775 -0.67,-0.517 -1.16,-1.37 -1.46,-2.561 -0.31,-1.19 -0.46,-2.942 -0.46,-5.256 0,-3.189 0.24,-8.411 0.71,-15.666 h -0.34 c -6.74,9.883 -11.82,17.789 -15.26,23.719 h -6.84 l 0.34,-1.651 c 1.03,-1.258 2.06,-2.566 3.1,-3.925 1.03,-1.359 2.29,-3.083 3.77,-5.172 L 398.5,342.03 c -0.02,-2.291 -0.12,-4.211 -0.3,-5.761 -0.18,-1.55 -0.43,-2.779 -0.74,-3.689 -0.32,-0.91 -0.73,-1.578 -1.25,-2.005 -0.51,-0.426 -1.22,-0.64 -2.12,-0.64 -0.74,0 -1.49,0.214 -2.26,0.64 -0.76,0.427 -1.87,1.303 -3.33,2.628 l -1.76,-1.954 c 2.07,-2.044 3.78,-3.431 5.14,-4.161 1.36,-0.73 2.71,-1.095 4.06,-1.095 z"
     fill-rule="evenodd"
     id="path128" /><text
     fill="#000000"
     fill-opacity="0"
     font-family="Arial, Arial_MSFontService, sans-serif"
     font-size="48.7515px"
     x="376.19995"
     y="368.651"
     id="text130">ğœ†</text><path
     d="m 394.52,425.715 c 4.17,0 7.33,0.916 9.46,2.746 2.14,1.831 3.2,4.487 3.2,7.968 0,1.191 -0.11,2.286 -0.35,3.285 -0.24,1 -0.61,1.988 -1.11,2.965 -0.51,0.977 -1.19,2.027 -2.04,3.15 -0.85,1.123 -1.8,2.263 -2.83,3.42 -1.03,1.157 -2.82,3.083 -5.36,5.778 -4.26,4.515 -7.4,8.456 -9.4,11.826 h 12.71 c 1.1,0 1.98,-0.068 2.66,-0.203 0.67,-0.134 1.21,-0.359 1.61,-0.673 0.41,-0.315 0.73,-0.725 0.96,-1.23 0.24,-0.506 0.54,-1.286 0.9,-2.342 h 2.86 l -0.57,9.838 h -27.73 v -1.617 c 0.97,-2.358 2.27,-4.773 3.91,-7.244 1.64,-2.47 3.96,-5.379 6.97,-8.726 2.61,-2.875 4.48,-5.053 5.63,-6.536 1.26,-1.617 2.19,-3.015 2.81,-4.194 0.62,-1.18 1.06,-2.291 1.33,-3.336 0.27,-1.044 0.41,-2.094 0.41,-3.15 0,-1.685 -0.27,-3.173 -0.81,-4.464 -0.54,-1.292 -1.37,-2.308 -2.48,-3.049 -1.11,-0.741 -2.51,-1.112 -4.19,-1.112 -4.2,0 -7.03,2.336 -8.49,7.008 h -4.08 v -6.469 c 2.72,-1.28 5.26,-2.207 7.63,-2.78 2.37,-0.572 4.5,-0.859 6.39,-0.859 z"
     fill-rule="evenodd"
     id="path132" /><text
     fill="#000000"
     fill-opacity="0"
     font-family="Arial, Arial_MSFontService, sans-serif"
     font-size="46.5278px"
     x="379.48999"
     y="466.427"
     id="text134">2</text><path
     d="m 374.7,404.249 h 12.66 12.67 12.67 v 4 H 400.03 387.36 374.7 Z"
     fill-rule="evenodd"
     id="path136" /><path
     d="m 2055.57,599.5 -341.065,3.6e-4"
     stroke="#0070c0"
     stroke-width="6.875"
     stroke-miterlimit="8"
     fill="none"
     fill-rule="evenodd"
     id="path138" /><path
     d="m 2013.5,666.5 c 0,-37.0031 -39.6228,-67 -88.5,-67 -48.877,0 -88.5,29.9969 -88.5,67 0,37.003 39.623,67 88.5,67 48.8772,0 88.5,-29.997 88.5,-67 z"
     stroke="#0070c0"
     stroke-width="6.875"
     stroke-miterlimit="8"
     fill="none"
     fill-rule="evenodd"
     id="path140" /><path
     d="m 1991.5,667 c 0,-36.7269 -39.6228,-66.5 -88.5,-66.5 -48.877,0 -88.5,29.7731 -88.5,66.5 0,36.727 39.623,66.5 88.5,66.5 48.8772,0 88.5,-29.773 88.5,-66.5 z"
     stroke="#0070c0"
     stroke-width="6.875"
     stroke-miterlimit="8"
     fill="none"
     fill-rule="evenodd"
     id="path142" /><path
     d="m 1972.5,666.5 c 0,-37.0031 -39.6228,-67 -88.5,-67 -48.877,0 -88.5,29.9969 -88.5,67 0,37.003 39.623,67 88.5,67 48.8772,0 88.5,-29.997 88.5,-67 z"
     stroke="#0070c0"
     stroke-width="6.875"
     stroke-miterlimit="8"
     fill="none"
     fill-rule="evenodd"
     id="path144" /><rect
     x="1496.5"
     y="563.5"
     width="19"
     height="80.999802"
     stroke="#042433"
     stroke-width="6.875"
     stroke-miterlimit="8"
     fill="#156082"
     id="rect146" /><rect
     x="-1708.5"
     y="579.5"
     width="160"
     height="46.000099"
     stroke="#042433"
     stroke-width="6.875"
     stroke-miterlimit="8"
     fill="#dceaf7"
     transform="scale(-1,1)"
     id="rect148" /><text
     fill="#202020"
     font-family="Calibri, Calibri_MSFontService, sans-serif"
     font-weight="400"
     font-size="64px"
     id="text150"
     x="1544.37"
     y="560">GRIN</text><text
     fill="#202020"
     font-family="Calibri, Calibri_MSFontService, sans-serif"
     font-weight="400"
     font-size="64px"
     id="text152"
     x="1677.29"
     y="560">1</text><rect
     x="46.5"
     y="586.5"
     width="63.000198"
     height="45"
     stroke="#042433"
     stroke-width="6.875"
     stroke-miterlimit="8"
     fill="#156082"
     id="rect154" /><text
     font-family="Aptos, Aptos_MSFontService, sans-serif"
     font-weight="400"
     font-size="69px"
     id="text156"
     x="249.2"
     y="860">PD</text><path
     d="m 2524.5,580.5 h 255.36"
     stroke="#000000"
     stroke-width="6.875"
     stroke-miterlimit="8"
     fill="none"
     fill-rule="evenodd"
     id="path158" /><path
     d="m 2524.5,918.5 h 255.36"
     stroke="#000000"
     stroke-width="6.875"
     stroke-miterlimit="8"
     fill="none"
     fill-rule="evenodd"
     id="path160" /><path
     d="m 2524.5,833.5 h 255.36"
     stroke="#000000"
     stroke-width="6.875"
     stroke-miterlimit="8"
     fill="none"
     fill-rule="evenodd"
     id="path162" /><path
     d="m 2524.5,510.5 h 255.36"
     stroke="#000000"
     stroke-width="6.875"
     stroke-miterlimit="8"
     fill="none"
     fill-rule="evenodd"
     id="path164" /><path
     d="m 2524.5,363.5 h 255.36"
     stroke="#000000"
     stroke-width="6.875"
     stroke-miterlimit="8"
     fill="none"
     fill-rule="evenodd"
     id="path166" /><text
     font-family="Aptos, Aptos_MSFontService, sans-serif"
     font-weight="400"
     font-size="55px"
     id="text168"
     x="2799.8799"
     y="246">F=3</text><text
     font-family="Aptos, Aptos_MSFontService, sans-serif"
     font-weight="400"
     font-size="55px"
     id="text170"
     x="2801.3999"
     y="593">F=</text><text
     font-family="Aptos, Aptos_MSFontService, sans-serif"
     font-weight="400"
     font-size="55px"
     id="text172"
     x="2859.26"
     y="593">1</text><text
     font-family="Aptos, Aptos_MSFontService, sans-serif"
     font-weight="400"
     font-size="55px"
     id="text174"
     x="2801.3999"
     y="922">F=1</text><text
     font-family="Aptos, Aptos_MSFontService, sans-serif"
     font-weight="400"
     font-size="55px"
     id="text176"
     x="2801.3999"
     y="843">F=2</text><path
     d="m 2524.5,288.5 h 255.36"
     stroke="#000000"
     stroke-width="6.875"
     stroke-miterlimit="8"
     fill="none"
     fill-rule="evenodd"
     id="path178" /><path
     d="m 2524.5,250.5 h 255.36"
     stroke="#000000"
     stroke-width="6.875"
     stroke-miterlimit="8"
     fill="none"
     fill-rule="evenodd"
     id="path180" /><path
     d="m 2524.5,326.5 h 255.36"
     stroke="#000000"
     stroke-width="6.875"
     stroke-miterlimit="8"
     fill="none"
     fill-rule="evenodd"
     id="path182" /><text
     font-family="Aptos, Aptos_MSFontService, sans-serif"
     font-weight="400"
     font-size="55px"
     id="text184"
     x="2797.9199"
     y="298">F=2</text><path
     d="m 2584.875,833.22 3e-4,-547.848 h -13.75 l -3e-4,547.848 z m 13.7503,-540.973 -20.6249,-41.25 -20.6251,41.25 z"
     fill="#ff0000"
     id="path186" /><text
     fill="#ff0000"
     font-family="Aptos, Aptos_MSFontService, sans-serif"
     font-weight="400"
     font-size="46px"
     id="text188"
     x="2340.53"
     y="408">D2 </text><text
     fill="#ff0000"
     font-family="Aptos, Aptos_MSFontService, sans-serif"
     font-weight="400"
     font-size="46px"
     id="text190"
     x="2340.53"
     y="463">Blow</text><text
     fill="#ff0000"
     font-family="Aptos, Aptos_MSFontService, sans-serif"
     font-weight="400"
     font-size="46px"
     id="text192"
     x="2438.5"
     y="463">-</text><text
     fill="#ff0000"
     font-family="Aptos, Aptos_MSFontService, sans-serif"
     font-weight="400"
     font-size="46px"
     id="text194"
     x="2453.97"
     y="463">away</text><path
     d="m 2636.875,833.49 3e-4,-512.119 h -13.75 l -3e-4,512.119 z m 13.7503,-505.244 -20.6249,-41.25 -20.6251,41.25 z"
     fill="#ff0000"
     id="path196" /><text
     fill="#ff0000"
     font-family="Aptos, Aptos_MSFontService, sans-serif"
     font-weight="400"
     font-size="46px"
     id="text198"
     x="2654.01"
     y="456">D2 OP </text><text
     fill="#ff0000"
     font-family="Aptos, Aptos_MSFontService, sans-serif"
     font-weight="400"
     font-size="46px"
     id="text200"
     x="2804.6399"
     y="456">repump</text><text
     fill="#c00000"
     font-family="Aptos, Aptos_MSFontService, sans-serif"
     font-weight="400"
     font-size="46px"
     id="text202"
     x="2729.73"
     y="720">D1 OP</text><path
     d="m 2707.875,915.48001 3e-4,-301.10201 h -13.75 l -3e-4,301.10199 z m 13.7503,-294.22701 -20.6249,-41.25 -20.6251,41.25 z"
     fill="#c00000"
     id="path204" /><text
     font-family="Aptos, Aptos_MSFontService, sans-serif"
     font-weight="400"
     font-size="55px"
     id="text206"
     x="2357.5901"
     y="302">5P3/2</text><text
     font-family="Aptos, Aptos_MSFontService, sans-serif"
     font-weight="400"
     font-size="55px"
     id="text208"
     x="2353.0701"
     y="565">5P1/2</text><text
     font-family="Aptos, Aptos_MSFontService, sans-serif"
     font-weight="400"
     font-size="55px"
     id="text210"
     x="2361.1201"
     y="889">5S1/2</text><text
     font-family="Aptos, Aptos_MSFontService, sans-serif"
     font-weight="400"
     font-size="92px"
     id="text212"
     x="-52.84"
     y="86">a</text><text
     font-family="Aptos, Aptos_MSFontService, sans-serif"
     font-weight="400"
     font-size="92px"
     id="text214"
     x="2161.71"
     y="105.78">b</text><path
     d="m 668.68764,1061.8761 3.2e-4,-131.80509 h -7.10054 l -3.2e-4,131.80509 z m 10.65112,-127.07116 -14.20102,-28.40214 -14.20112,28.40214 z"
     id="path1646"
     style="stroke-width:3.55027" /><path
     d="m 665.13737,1059.0643 h 138.8971 v 7.1005 h -138.8971 z m 134.16105,-10.6508 28.40213,14.201 -28.40213,14.2011 z"
     id="path1648"
     style="stroke-width:3.55027" /><path
     d="m 628.08444,1059.0643 c 0,-21.5679 17.48506,-39.053 39.05293,-39.053 21.56788,0 39.05294,17.4851 39.05294,39.053 0,21.5678 -17.48506,39.0529 -39.05294,39.0529 -21.56787,0 -39.05293,-17.4851 -39.05293,-39.0529 z"
     stroke="#000000"
     stroke-width="7.10053"
     stroke-miterlimit="8"
     fill="none"
     fill-rule="evenodd"
     id="path1650" /><path
     d="m 658.03684,1059.0643 c 0,-3.9231 3.97275,-7.1006 8.87567,-7.1006 4.90292,0 8.87566,3.1775 8.87566,7.1006 0,3.923 -3.97274,7.1005 -8.87566,7.1005 -4.90292,0 -8.87567,-3.1775 -8.87567,-7.1005 z"
     stroke="#000000"
     stroke-width="7.10053"
     stroke-miterlimit="8"
     fill="#156082"
     fill-rule="evenodd"
     id="path1652" /><text
     font-family="'Cambria Math', 'Cambria Math_MSFontService', sans-serif"
     font-weight="400"
     font-size="71.0053px"
     id="text1654"
     x="839.79633"
     y="1083.9161"
     style="stroke-width:3.55027">ğ‘¥</text><text
     font-family="'Cambria Math', 'Cambria Math_MSFontService', sans-serif"
     font-weight="400"
     font-size="71.0053px"
     id="text1656"
     x="641.6275"
     y="870.90015"
     style="stroke-width:3.55027">ğ‘¦</text><text
     font-family="'Cambria Math', 'Cambria Math_MSFontService', sans-serif"
     font-weight="400"
     font-size="71.0053px"
     id="text1658"
     x="579.60437"
     y="1115.8685"
     style="stroke-width:3.55027">ğ‘§</text></svg>
